<mxfile host="app.diagrams.net" agent="Mozilla/5.0 (Windows NT 10.0; Win64; x64) AppleWebKit/537.36 (KHTML, like Gecko) Chrome/131.0.0.0 Safari/537.36" version="24.9.1">
  <diagram name="Trang-1" id="QKUE_ooXcnDkt1vQZddo">
    <mxGraphModel dx="1050" dy="522" grid="1" gridSize="10" guides="1" tooltips="1" connect="1" arrows="1" fold="1" page="1" pageScale="1" pageWidth="827" pageHeight="1169" math="0" shadow="0">
      <root>
        <mxCell id="0" />
        <mxCell id="1" parent="0" />
        <mxCell id="s0A9FFqCOSbbXMuvmdED-3" style="edgeStyle=orthogonalEdgeStyle;rounded=0;orthogonalLoop=1;jettySize=auto;html=1;" edge="1" parent="1" source="s0A9FFqCOSbbXMuvmdED-1" target="s0A9FFqCOSbbXMuvmdED-2">
          <mxGeometry relative="1" as="geometry" />
        </mxCell>
        <mxCell id="s0A9FFqCOSbbXMuvmdED-1" value="Quản lý" style="shape=umlActor;verticalLabelPosition=bottom;verticalAlign=top;html=1;outlineConnect=0;" vertex="1" parent="1">
          <mxGeometry x="60" y="200" width="30" height="60" as="geometry" />
        </mxCell>
        <mxCell id="s0A9FFqCOSbbXMuvmdED-2" value="Quản lý chức vụ" style="ellipse;whiteSpace=wrap;html=1;" vertex="1" parent="1">
          <mxGeometry x="170" y="195" width="140" height="70" as="geometry" />
        </mxCell>
        <mxCell id="s0A9FFqCOSbbXMuvmdED-7" value="" style="group" vertex="1" connectable="0" parent="1">
          <mxGeometry x="370" y="115" width="140" height="230" as="geometry" />
        </mxCell>
        <mxCell id="s0A9FFqCOSbbXMuvmdED-4" value="Xóa chức vụ" style="ellipse;whiteSpace=wrap;html=1;" vertex="1" parent="s0A9FFqCOSbbXMuvmdED-7">
          <mxGeometry y="160" width="140" height="70" as="geometry" />
        </mxCell>
        <mxCell id="s0A9FFqCOSbbXMuvmdED-5" value="Sửa chức vụ" style="ellipse;whiteSpace=wrap;html=1;" vertex="1" parent="s0A9FFqCOSbbXMuvmdED-7">
          <mxGeometry y="80" width="140" height="70" as="geometry" />
        </mxCell>
        <mxCell id="s0A9FFqCOSbbXMuvmdED-6" value="Thêm chức vụ" style="ellipse;whiteSpace=wrap;html=1;" vertex="1" parent="s0A9FFqCOSbbXMuvmdED-7">
          <mxGeometry width="140" height="70" as="geometry" />
        </mxCell>
        <mxCell id="s0A9FFqCOSbbXMuvmdED-8" value="Extend" style="html=1;verticalAlign=bottom;endArrow=open;dashed=1;endSize=8;curved=0;rounded=0;" edge="1" parent="1" source="s0A9FFqCOSbbXMuvmdED-6" target="s0A9FFqCOSbbXMuvmdED-2">
          <mxGeometry x="0.0034" relative="1" as="geometry">
            <mxPoint x="450" y="270" as="sourcePoint" />
            <mxPoint x="370" y="270" as="targetPoint" />
            <mxPoint as="offset" />
          </mxGeometry>
        </mxCell>
        <mxCell id="s0A9FFqCOSbbXMuvmdED-9" value="Extend" style="html=1;verticalAlign=bottom;endArrow=open;dashed=1;endSize=8;curved=0;rounded=0;" edge="1" parent="1" source="s0A9FFqCOSbbXMuvmdED-5" target="s0A9FFqCOSbbXMuvmdED-2">
          <mxGeometry relative="1" as="geometry">
            <mxPoint x="394" y="186" as="sourcePoint" />
            <mxPoint x="306" y="219" as="targetPoint" />
            <mxPoint as="offset" />
          </mxGeometry>
        </mxCell>
        <mxCell id="s0A9FFqCOSbbXMuvmdED-10" value="Extend" style="html=1;verticalAlign=bottom;endArrow=open;dashed=1;endSize=8;curved=0;rounded=0;" edge="1" parent="1" source="s0A9FFqCOSbbXMuvmdED-4" target="s0A9FFqCOSbbXMuvmdED-2">
          <mxGeometry relative="1" as="geometry">
            <mxPoint x="380" y="243" as="sourcePoint" />
            <mxPoint x="320" y="242" as="targetPoint" />
          </mxGeometry>
        </mxCell>
      </root>
    </mxGraphModel>
  </diagram>
</mxfile>
